<?xml version="1.0" standalone="no"?>
<!DOCTYPE svg PUBLIC "-//W3C//DTD SVG 20010904//EN"
 "http://www.w3.org/TR/2001/REC-SVG-20010904/DTD/svg10.dtd">
<svg version="1.0" xmlns="http://www.w3.org/2000/svg"
 width="716.000000pt" height="716.000000pt" viewBox="0 0 716.000000 716.000000"
 preserveAspectRatio="xMidYMid meet">
<metadata>
Created by potrace 1.11, written by Peter Selinger 2001-2013
</metadata>
<g transform="translate(0.000000,716.000000) scale(0.100000,-0.100000)"
fill="#000000" stroke="none">
<path d="M3450 7154 c-538 -25 -1018 -147 -1468 -373 -661 -331 -1198 -850
-1549 -1496 -476 -876 -562 -1919 -237 -2867 392 -1144 1355 -2024 2526 -2308
321 -78 589 -105 946 -97 312 7 500 32 782 102 1175 293 2132 1179 2515 2330
81 243 125 437 161 710 16 118 32 625 20 625 -4 0 -52 -42 -107 -92 -223 -208
-396 -278 -686 -278 -251 0 -536 67 -898 212 -166 67 -219 79 -356 85 -151 7
-237 -9 -350 -63 -102 -49 -184 -110 -265 -197 -81 -88 -131 -166 -289 -462
-198 -368 -485 -861 -618 -1060 -289 -433 -567 -679 -883 -784 -242 -80 -563
-83 -824 -7 -345 100 -585 336 -653 643 -57 253 -27 450 165 1068 122 393 140
471 141 595 1 119 -11 163 -69 247 -52 75 -113 113 -183 113 -67 0 -124 24
-168 71 -39 42 -53 77 -53 136 0 133 127 223 293 208 66 -6 77 -4 134 24 105
51 183 110 303 230 150 150 246 279 480 646 351 548 506 751 710 932 335 296
710 428 1124 393 124 -10 304 -48 356 -75 46 -24 82 -86 83 -143 1 -38 -7 -62
-36 -115 -64 -114 -119 -140 -244 -114 -300 63 -486 2 -705 -232 -120 -128
-182 -220 -433 -646 -269 -455 -403 -642 -597 -831 -150 -147 -240 -213 -403
-299 -38 -20 -71 -38 -72 -39 -1 -1 35 -40 81 -87 67 -68 91 -102 129 -179 64
-131 81 -223 75 -404 -7 -174 -30 -282 -134 -617 -41 -134 -92 -305 -111 -379
-35 -129 -37 -142 -37 -305 -1 -166 0 -171 27 -231 57 -122 133 -166 298 -172
206 -8 360 63 554 255 199 196 477 620 840 1278 89 162 183 308 266 415 32 41
91 120 132 175 125 167 254 278 422 362 205 103 405 143 713 143 330 0 474
-27 777 -147 105 -42 219 -84 255 -94 139 -41 373 -33 468 15 26 13 78 57 116
97 38 41 93 99 122 130 l53 57 -33 143 c-218 929 -809 1742 -1629 2239 -448
271 -952 440 -1469 494 -149 15 -396 25 -508 20z"/>
</g>
</svg>
