<svg xmlns="http://www.w3.org/2000/svg" viewBox="0 0 512 411"><defs><style>.cls-1{fill:#f3cd00;}.cls-2{fill:#292f36;}.cls-3{fill:#f7f7f7;}.cls-4{fill:#d3d3d3;}.cls-5{fill:#fff;}</style></defs><title>camera</title><g id="Layer_2" data-name="Layer 2"><g id="Capa_1" data-name="Capa 1"><path class="cls-1" d="M512,393.2A17.71,17.71,0,0,1,494.2,411H17.9A17.71,17.71,0,0,1,.1,393.2V78.2A17.71,17.71,0,0,1,17.9,60.4H494.2A17.71,17.71,0,0,1,512,78.2v315Z"/><path class="cls-2" d="M99,43.6H17.8A17.71,17.71,0,0,0,0,61.4V393.2A17.71,17.71,0,0,0,17.8,411h98V60.4C115.9,51.5,107.9,43.6,99,43.6Z"/><circle class="cls-3" cx="313.9" cy="235.7" r="150.5"/><circle class="cls-2" cx="313.9" cy="235.7" r="138.6"/><circle class="cls-4" cx="313.9" cy="235.7" r="96.1"/><polygon class="cls-2" points="411 60.4 217.9 60.4 247.6 0 381.3 0 411 60.4"/><rect class="cls-3" x="277.3" y="12.9" width="74.3" height="34.7"/><rect class="cls-1" x="36.6" y="25.8" width="43.6" height="17.8"/><circle class="cls-3" cx="465.5" cy="98" r="12.9"/><path class="cls-5" d="M247.6,227.8h-2a9,9,0,0,1-6.9-10.9c2-5.9,4-12.9,6.9-17.8,2-4,7.9-5.9,11.9-4s5.9,7.9,4,11.9a57,57,0,0,0-5,13.9C254.5,225.8,251.5,227.8,247.6,227.8Zm21.8-35.7a10.37,10.37,0,0,1-6.9-3c-3-4-3-8.9,1-11.9,11.9-9.9,25.7-16.8,41.6-18.8,5-1,8.9,3,9.9,7.9s-3,8.9-7.9,9.9c-11.9,1-22.8,5.9-32.7,13.9C273.3,192.1,271.3,192.1,269.4,192.1Z"/></g></g></svg>