<svg xmlns="http://www.w3.org/2000/svg" viewBox="0 0 490.91 299.15"><defs><style>.cls-1{fill:#f3cd00;}.cls-2{fill:#e5af11;}.cls-3{fill:#f7f7f7;}.cls-4{fill:#292f36;}</style></defs><title>drone</title><g id="Layer_2" data-name="Layer 2"><g id="Capa_1" data-name="Capa 1"><path class="cls-1" d="M322.16,291.47H168.75V176.42H322.16V291.47Z"/><polygon class="cls-2" points="291.48 176.42 291.48 230.11 291.48 291.48 322.16 291.48 322.16 230.11 322.16 176.42 291.48 176.42"/><rect class="cls-3" x="191.76" y="245.45" width="23.01" height="23.01"/><polygon class="cls-1" points="191.76 153.41 299.14 153.41 322.16 176.42 168.75 176.42 191.76 153.41"/><polygon class="cls-2" points="299.14 153.41 268.46 153.41 291.48 176.42 322.16 176.42 299.14 153.41"/><polygon class="cls-4" points="437.21 61.36 437.21 115.06 375.85 115.06 375.85 99.72 375.85 61.36 406.53 61.36 437.21 61.36"/><path class="cls-2" d="M314.49,99.72v7.67a15.39,15.39,0,0,1-15.34,15.34H191.76a15.39,15.39,0,0,1-15.34-15.34V99.72H115.06V61.36h61.36A15.39,15.39,0,0,1,191.76,46H299.15a15.39,15.39,0,0,1,15.34,15.34h61.36V99.72H314.49Z"/><polygon class="cls-4" points="115.06 99.72 115.06 115.06 53.69 115.06 53.69 61.36 84.37 61.36 115.06 61.36 115.06 99.72"/><path class="cls-4" d="M299.15,46H191.76a15.39,15.39,0,0,0-15.34,15.34v46a15.39,15.39,0,0,0,15.34,15.34H299.15a15.39,15.39,0,0,0,15.34-15.34v-46A15.39,15.39,0,0,0,299.15,46Z"/><path class="cls-4" d="M115.06,122.73H53.69A7.66,7.66,0,0,1,46,115.06V61.36a7.66,7.66,0,0,1,7.67-7.67h61.37a7.66,7.66,0,0,1,7.67,7.67v53.7A7.66,7.66,0,0,1,115.06,122.73Zm-53.7-15.34h46V69h-46Z"/><path class="cls-4" d="M84.37,69a7.66,7.66,0,0,1-7.67-7.67V7.67A7.67,7.67,0,0,1,92,7.67V61.36A7.66,7.66,0,0,1,84.37,69Z"/><path class="cls-4" d="M161.08,23H7.67a7.67,7.67,0,0,1,0-15.34H161.08a7.67,7.67,0,0,1,0,15.34Z"/><path class="cls-4" d="M437.21,122.73H375.85a7.66,7.66,0,0,1-7.67-7.67V61.36a7.66,7.66,0,0,1,7.67-7.67h61.36a7.66,7.66,0,0,1,7.67,7.67v53.7A7.66,7.66,0,0,1,437.21,122.73Zm-53.69-15.34h46V69h-46Z"/><path class="cls-4" d="M406.53,69a7.66,7.66,0,0,1-7.67-7.67V7.67a7.67,7.67,0,0,1,15.34,0V61.36A7.66,7.66,0,0,1,406.53,69Z"/><path class="cls-4" d="M483.23,23H329.83a7.67,7.67,0,1,1,0-15.34h153.4a7.67,7.67,0,1,1,0,15.34Z"/><path class="cls-4" d="M176.42,69H115.06a7.67,7.67,0,1,1,0-15.34h61.36a7.67,7.67,0,1,1,0,15.34Z"/><path class="cls-4" d="M176.42,107.39H115.06a7.68,7.68,0,0,1,0-15.35h61.36a7.68,7.68,0,0,1,0,15.35Z"/><path class="cls-4" d="M375.85,69H314.49a7.67,7.67,0,0,1,0-15.34h61.36a7.67,7.67,0,0,1,0,15.34Z"/><path class="cls-4" d="M375.85,107.39H314.49a7.68,7.68,0,0,1,0-15.35h61.36a7.68,7.68,0,0,1,0,15.35Z"/><path class="cls-4" d="M299.15,130.4H191.76a23,23,0,0,1-23-23V99.72a7.67,7.67,0,1,1,15.34,0v7.67a7.68,7.68,0,0,0,7.67,7.67H299.15a7.68,7.68,0,0,0,7.67-7.67V99.72a7.67,7.67,0,1,1,15.34,0v7.67A23,23,0,0,1,299.15,130.4Z"/><path class="cls-4" d="M314.49,69a7.66,7.66,0,0,1-7.67-7.67,7.68,7.68,0,0,0-7.67-7.67H191.76a7.68,7.68,0,0,0-7.67,7.67,7.67,7.67,0,0,1-15.34,0,23,23,0,0,1,23-23H299.15a23,23,0,0,1,23,23A7.66,7.66,0,0,1,314.49,69Z"/><path class="cls-4" d="M322.16,299.15H168.75a7.67,7.67,0,0,1-7.67-7.68V176.42a7.66,7.66,0,0,1,7.67-7.67H322.16a7.66,7.66,0,0,1,7.67,7.67V291.47A7.67,7.67,0,0,1,322.16,299.15ZM176.42,283.8H314.49V184.09H176.42Z"/><path class="cls-4" d="M168.75,184.09A7.67,7.67,0,0,1,163.33,171l23-23a7.67,7.67,0,0,1,10.84,10.85l-23,23A7.62,7.62,0,0,1,168.75,184.09Z"/><path class="cls-4" d="M322.16,184.09a7.65,7.65,0,0,1-5.43-2.25l-23-23A7.67,7.67,0,1,1,304.57,148l23,23a7.67,7.67,0,0,1-5.42,13.09Z"/><path class="cls-4" d="M299.15,161.08H191.76a7.67,7.67,0,1,1,0-15.34H299.15a7.67,7.67,0,1,1,0,15.34Z"/><path class="cls-4" d="M214.77,276.13h-23a7.66,7.66,0,0,1-7.67-7.67v-23a7.66,7.66,0,0,1,7.67-7.67h23a7.66,7.66,0,0,1,7.67,7.67v23A7.66,7.66,0,0,1,214.77,276.13Zm-15.34-15.34h7.67v-7.67h-7.67Z"/><path class="cls-4" d="M145.74,237.78a7.66,7.66,0,0,1-7.67-7.67V99.72a7.67,7.67,0,1,1,15.34,0V230.11A7.66,7.66,0,0,1,145.74,237.78Z"/><path class="cls-4" d="M168.75,237.78h-23a7.67,7.67,0,0,1,0-15.34h23a7.67,7.67,0,0,1,0,15.34Z"/><path class="cls-4" d="M345.17,237.78a7.66,7.66,0,0,1-7.67-7.67V99.72a7.67,7.67,0,1,1,15.34,0V230.11A7.66,7.66,0,0,1,345.17,237.78Z"/><path class="cls-4" d="M345.17,237.78h-23a7.67,7.67,0,0,1,0-15.34h23a7.67,7.67,0,0,1,0,15.34Z"/><path class="cls-4" d="M176.42,107.39a7.66,7.66,0,0,1-7.67-7.67V92a7.67,7.67,0,0,1,15.34,0v7.68A7.66,7.66,0,0,1,176.42,107.39Z"/><path class="cls-4" d="M176.42,76.7A7.66,7.66,0,0,1,168.75,69V61.36a7.67,7.67,0,0,1,15.34,0V69A7.66,7.66,0,0,1,176.42,76.7Z"/><path class="cls-4" d="M314.49,107.39a7.66,7.66,0,0,1-7.67-7.67V92a7.67,7.67,0,0,1,15.34,0v7.68A7.66,7.66,0,0,1,314.49,107.39Z"/><path class="cls-4" d="M314.49,76.7A7.65,7.65,0,0,1,306.82,69V61.36a7.67,7.67,0,0,1,15.34,0V69A7.66,7.66,0,0,1,314.49,76.7Z"/><path class="cls-4" d="M276.13,99.72H216a7.68,7.68,0,0,1,0-15.35h60.16a7.68,7.68,0,0,1,0,15.35Z"/><path class="cls-4" d="M214.77,61.36a7.66,7.66,0,0,1-7.67-7.67V46a7.67,7.67,0,1,1,15.34,0v7.67A7.66,7.66,0,0,1,214.77,61.36Z"/><path class="cls-4" d="M245.45,61.36a7.66,7.66,0,0,1-7.67-7.67V46a7.67,7.67,0,0,1,15.34,0v7.67A7.66,7.66,0,0,1,245.45,61.36Z"/><path class="cls-4" d="M276.13,61.36a7.66,7.66,0,0,1-7.67-7.67V46a7.67,7.67,0,0,1,15.34,0v7.67A7.66,7.66,0,0,1,276.13,61.36Z"/></g></g></svg>