<svg xmlns="http://www.w3.org/2000/svg" viewBox="0 0 454.2 496"><defs><style>.cls-1{fill:#f6f4f3;}.cls-2{fill:#f3cd00;}.cls-3{fill:#292f36;}</style></defs><title>photographer</title><g id="Layer_2" data-name="Layer 2"><g id="Capa_1" data-name="Capa 1"><path class="cls-1" d="M451.36,461.26H306.42l-8.22,24.05L150,484l-2.61-22.75H2.84L34,367.64c8.17-24.49,29-37.64,54.35-42.4L171.8,309.6V285.41a94.88,94.88,0,0,1-38.28-61.71,39.58,39.58,0,0,1-32.82-38.95v-55.3a126.4,126.4,0,0,1,252.8,0v55.3a39.54,39.54,0,0,1-32.83,38.93,94.84,94.84,0,0,1-38.27,61.73V309.6l83.41,15.64c25.36,4.76,46.19,17.91,54.35,42.4Z"/><path class="cls-2" d="M355.1,128v56h-8a32,32,0,0,0-32-32v-4.68a11.31,11.31,0,0,0-19.31-8l-.4.4A96.58,96.58,0,0,1,227.1,168l6.81-13.61a11.37,11.37,0,0,0,1.19-5.06v-2a11.31,11.31,0,0,0-19.31-8A98,98,0,0,1,146.53,168H139.1V152a32,32,0,0,0-32,32h-8V128a128,128,0,0,1,256,0Z"/><path class="cls-3" d="M300.63,386a23.7,23.7,0,0,0-9.53-2h-128a24,24,0,0,0-24,24v64a24,24,0,0,0,24,24h128a24,24,0,0,0,24-24V408A24,24,0,0,0,300.63,386Zm-1.53,86a8,8,0,0,1-8,8h-128a8,8,0,0,1-8-8V408a8,8,0,0,1,8-8h128a8,8,0,0,1,8,8Z"/><polygon class="cls-3" points="275.34 393.94 268.85 368 185.35 368 178.86 393.94 163.34 390.07 172.85 352 281.35 352 290.86 390.07 275.34 393.94"/><path class="cls-3" d="M322.93,144.77A19.35,19.35,0,0,0,303.78,128a19.84,19.84,0,0,0-14.06,6.07A87.9,87.9,0,0,1,240.55,159l.51-1a19.33,19.33,0,0,0,2-8.64v-2a19.31,19.31,0,0,0-33-13.66,89.35,89.35,0,0,1-63,26.34V144h-8a40,40,0,0,0-6.76,79.44,96.07,96.07,0,0,0,38.76,62.49,95.74,95.74,0,0,0,112,0,96,96,0,0,0,38.75-62.51A94.47,94.47,0,0,0,323.1,208V147.32A19.62,19.62,0,0,0,322.93,144.77ZM131.1,206.64a24,24,0,0,1,0-45.27Zm176,1.36a80,80,0,0,1-160,0V176a105.29,105.29,0,0,0,74.34-31c1.92-1.94,5.66-.36,5.66,2.34v2a3.36,3.36,0,0,1-.35,1.49L214.16,176H227.1a104.2,104.2,0,0,0,74.34-31,3.43,3.43,0,0,1,5.66,2.34Z"/><path class="cls-3" d="M355.1,184a40,40,0,0,1-33.25,39.42,39.5,39.5,0,0,1-6.75.58V208a23.59,23.59,0,0,0,8-1.38,24,24,0,0,0,0-45.24,23.59,23.59,0,0,0-8-1.38V144a40,40,0,0,1,40,40Z"/><path class="cls-3" d="M432,448l-24.58-73.74a56.06,56.06,0,0,0-42.81-37.34l-51-9.55-15.74-2.95-20.12-3.78-10.69-2V282.11h16v23.25l84.46,15.84a72,72,0,0,1,55,48L454.2,464H331.1V448Z"/><path class="cls-3" d="M187.1,282.36v36.28l-10.68,2-20.16,3.78-15.73,2.95-50.94,9.55a56.07,56.07,0,0,0-42.81,37.34L22.2,448H123.1v16H0l31.6-94.8a72.05,72.05,0,0,1,55-48l84.46-15.84v-23Z"/><rect class="cls-3" x="195.09" y="302.06" width="16" height="67.88" transform="translate(-178.1 242.02) rotate(-45)"/><rect class="cls-3" x="347.09" y="391.03" width="16" height="65.96" transform="translate(-92.23 98.77) rotate(-14.03)"/><rect class="cls-3" x="66.1" y="416.05" width="65.96" height="16" transform="translate(-336.34 417.47) rotate(-75.98)"/><rect class="cls-3" x="262.22" y="348" width="73.76" height="16" transform="translate(-113.28 570.8) rotate(-77.48)"/><rect class="cls-3" x="147.09" y="319.13" width="16" height="73.76" transform="translate(-73.53 42.11) rotate(-12.53)"/><circle class="cls-2" cx="227.1" cy="440" r="40"/><path class="cls-3" d="M227.1,416a24,24,0,1,0,24,24A24,24,0,0,0,227.1,416Zm0,32a8,8,0,1,1,8-8A8,8,0,0,1,227.1,448Z"/><rect class="cls-3" x="217.19" y="327.98" width="67.88" height="16" transform="translate(-164.02 275.98) rotate(-45)"/></g></g></svg>