<?xml version="1.0" encoding="utf-8"?>
<!-- Generator: Adobe Illustrator 22.1.0, SVG Export Plug-In . SVG Version: 6.00 Build 0)  -->
<svg version="1.1" id="Capa_1" xmlns="http://www.w3.org/2000/svg" xmlns:xlink="http://www.w3.org/1999/xlink" x="0px" y="0px"
	 viewBox="0 0 512 512" style="enable-background:new 0 0 512 512;" xml:space="preserve">
<style type="text/css">
	.st0{fill:#F3CD00;}
	.st1{fill:#292F36;}
	.st2{fill:#F7F7F7;}
	.st3{fill:#D3D3D3;}
	.st4{fill:#FFFFFF;}
</style>
<path class="st0" d="M-20,443.7c0,9.9-7.9,17.8-17.8,17.8h-476.3c-9.9,0-17.8-7.9-17.8-17.8V128.7c0-9.9,7.9-17.8,17.8-17.8h476.3
	c9.9,0,17.8,7.9,17.8,17.8L-20,443.7L-20,443.7z"/>
<path class="st1" d="M-433,94.1h-81.2c-9.9,0-17.8,7.9-17.8,17.8v331.8c0,9.9,7.9,17.8,17.8,17.8h98V110.9
	C-416.1,102-424.1,94.1-433,94.1z"/>
<circle class="st2" cx="-218.1" cy="286.2" r="150.5"/>
<circle class="st1" cx="-218.1" cy="286.2" r="138.6"/>
<circle class="st3" cx="-218.1" cy="286.2" r="96.1"/>
<polygon class="st1" points="-121,110.9 -314.1,110.9 -284.4,50.5 -150.7,50.5 "/>
<rect x="-254.7" y="63.4" class="st2" width="74.3" height="34.7"/>
<rect x="-495.4" y="76.3" class="st0" width="43.6" height="17.8"/>
<circle class="st2" cx="-66.5" cy="148.5" r="12.9"/>
<path class="st4" d="M-284.4,278.3c-1,0-1,0-2,0c-5-1-7.9-5.9-6.9-10.9c2-5.9,4-12.9,6.9-17.8c2-4,7.9-5.9,11.9-4
	c4,2,5.9,7.9,4,11.9c-2,4-4,8.9-5,13.9C-277.5,276.3-280.5,278.3-284.4,278.3z M-262.6,242.6c-2,0-5-1-6.9-3c-3-4-3-8.9,1-11.9
	c11.9-9.9,25.7-16.8,41.6-18.8c5-1,8.9,3,9.9,7.9s-3,8.9-7.9,9.9c-11.9,1-22.8,5.9-32.7,13.9C-258.7,242.6-260.7,242.6-262.6,242.6z
	"/>
</svg>
