<svg xmlns="http://www.w3.org/2000/svg" viewBox="0 0 403.98 268.48"><defs><style>.cls-1{fill:#292f37;}</style></defs><title>zk_logo_horizontal_gray</title><g id="Layer_2" data-name="Layer 2"><g id="Layer_1-2" data-name="Layer 1"><path class="cls-1" d="M164.09,244.27V221.61h6.66v9.61h.12l7-9.61h7l-7.46,10.06,7.81,12.6h-7.74l-4.95-8.33-1.77,2.39v5.94Z"/><path class="cls-1" d="M193.43,244.27h-6.66V221.61h10.07c6,0,9.15,2.84,9.15,7.69a6.92,6.92,0,0,1-3.66,6.38l4.31,8.59h-7.45l-3.58-7.6h-2.18Zm0-12h2.75a2.75,2.75,0,0,0,3-2.86,2.82,2.82,0,0,0-3-2.89h-2.76Z"/><path class="cls-1" d="M222.44,239.76h-6.91l-1.17,4.51h-6.79l7.4-22.66h8.35l7.4,22.66h-7.1Zm-5.7-4.7h4.5l-2.19-8.22h-.12Z"/><path class="cls-1" d="M237.48,237.59c.19,1.29,1.76,2.14,3.55,2.14,2,0,3.22-.8,3.22-1.9s-.83-1.51-3.27-2l-3-.53c-4.17-.72-6.43-3.11-6.43-6.66,0-4.58,3.93-7.47,9.33-7.47,6,0,9.4,2.76,9.44,7.16h-6.08c-.05-1.42-1.44-2.25-3.23-2.25s-2.85.72-2.85,1.85.93,1.65,3.08,2l3.11.53c4.4.77,6.45,2.86,6.45,6.53,0,4.64-3.88,7.59-9.9,7.59s-9.71-2.55-9.72-7.07Zm-2.95-22.72h4.33l2.08,3h.12l2.07-3h4.34l-4,5.28h-4.93Z"/><path class="cls-1" d="M275.6,233c0,7.23-4.41,11.71-11.41,11.71s-11.42-4.48-11.42-11.71,4.41-11.73,11.42-11.73S275.6,225.71,275.6,233Zm-16,0c0,3.9,1.83,6.4,4.63,6.4s4.63-2.5,4.63-6.4-1.85-6.43-4.63-6.43S259.56,229,259.56,233Z"/><path class="cls-1" d="M283.18,244.27l-6.87-22.66H284L287.59,238h.13l3.63-16.34h7.35l-6.88,22.66Z"/><path class="cls-1" d="M316.72,244.27h-16V221.61h16v5.29h-9.33v3.66h8.75v4.77h-8.75V239h9.33Z"/><path class="cls-1" d="M319.27,232.93c0-7.47,4.32-11.71,11.25-11.71,6,0,10.5,3.89,10.52,9.51h-6.38c-.16-2.57-1.84-4.29-4.14-4.29-2.74,0-4.46,2.42-4.46,6.47s1.71,6.52,4.47,6.52c2.29,0,4-1.68,4.16-4.3h6.38c0,5.65-4.45,9.53-10.55,9.53C323.58,244.66,319.27,240.4,319.27,232.93Z"/><path class="cls-1" d="M342.73,244.55v-1l14.76-20.89H343.18v-1.3h16.1v1l-14.74,20.87h14.75v1.31Zm7.8-24.4-4.7-5.07h1.69l3.48,3.79,3.49-3.79h1.68l-4.7,5.07Z"/><path class="cls-1" d="M343,243.61l15-21.2v-.06H343.47v-.74H359v.67l-15,21.19v.06h15v.74H343Zm3.47-28.25h.91l3.6,3.91h0l3.59-3.91h.92l-4.18,4.51h-.69Z"/><rect class="cls-1" x="361.68" y="221.33" width="1.35" height="23.22"/><path class="cls-1" d="M362,244.27V221.61h.78v22.66Z"/><path class="cls-1" d="M375.45,244.86c-5.92,0-10.05-5-10.05-12.07s4-11.78,10.05-11.78c4.6,0,8.27,2.79,9.13,6.93l.07.34h-1.34l-.05-.21a7.65,7.65,0,0,0-7.81-5.75c-5.2,0-8.7,4.2-8.7,10.47,0,6.44,3.5,10.77,8.7,10.77,5,0,8-3,8-8.12v-1.29h-8.34v-1.28h9.67v2.54C384.74,241.24,381.18,244.86,375.45,244.86Z"/><path class="cls-1" d="M375.45,244.58c-5.78,0-9.77-4.8-9.77-11.79s3.91-11.49,9.77-11.49c4.46,0,8,2.7,8.85,6.7h-.77a8,8,0,0,0-8.08-6c-5.4,0-9,4.29-9,10.76s3.65,11.05,9,11.05c5.12,0,8.24-3.19,8.24-8.4v-1.57h-8.34v-.72h9.11v2.26C384.46,241.09,381,244.58,375.45,244.58Z"/><path class="cls-1" d="M402.49,244.55l-3-7.87H389.38l-3,7.87h-1.48l8.94-23.22h1.19L404,244.55ZM399,235.39l-4.57-12-4.57,12Z"/><path class="cls-1" d="M399.72,236.4H389.18l-3,7.87h-.86l8.71-22.66h.8l8.72,22.66h-.88Zm-10.25-.72h10l-4.95-13h-.08Z"/><path class="cls-1" d="M312.48,118.44c-.88-4.77-6.6-14-13.25-6.28-5.23,6.09-7.92,9.47-11.34,11.32s-7.27,2.16-14.85,2.17h0c-8.43,0-15.16-3.59-24-7.08l-.07,0a87.15,87.15,0,0,0-18.87-5.36c-27.25-3.25-44.59,1.06-56.17,7.66-13.11,7.47-18.84,17.89-23.2,23.6l-.06.08q-.51.66-1,1.23a90.17,90.17,0,0,0-6.78,9.39l-.24.36c-1.19,1.85-2.37,3.77-3.5,5.65l0,0c-.48.81-1,1.61-1.42,2.4a28,28,0,0,0-1.57,3.09l-3.8,6.71q-2.51,4.41-4.94,8.62l-2.91,4.87a6.27,6.27,0,0,0-.41.82c-3.36,5.72-6.62,11.13-9.73,16.16a180.13,180.13,0,0,1-16.23,22.58,62.42,62.42,0,0,1-15.47,13.39A30.08,30.08,0,0,1,67.1,244a24,24,0,0,1-7.65-1.15,12.84,12.84,0,0,1-5-3.07A15,15,0,0,1,51,234.17a27.44,27.44,0,0,1-1.44-9.59,60.45,60.45,0,0,1,2-15.11c1.48-5.74,3.15-11.48,5-17.06,1.92-5.94,3.69-11.88,5.23-17.67a72,72,0,0,0,2.58-18.68,39.76,39.76,0,0,0-3.7-17.72,35.06,35.06,0,0,0-10.35-12.56l-.94-.69A80.58,80.58,0,0,0,70,111.84a107.55,107.55,0,0,0,16.9-19C91.56,86.1,96,79.15,100.21,72.12Q106.32,61.82,112.12,52a108.52,108.52,0,0,1,11.6-16.28A52,52,0,0,1,136.35,25a27.22,27.22,0,0,1,14.22-3.55,40.25,40.25,0,0,1,11.09,1.51,8.54,8.54,0,0,0,9.66-3.86l2-3.35a8.51,8.51,0,0,0-4.82-12.46A84.67,84.67,0,0,0,158.87,1,72.66,72.66,0,0,0,146.3,0a68.9,68.9,0,0,0-26.53,4.92,82.09,82.09,0,0,0-20.94,12.6A107,107,0,0,0,82,35.17c-4.78,6.29-9.42,12.88-13.79,19.58S59.67,68,55.55,74.56A171.23,171.23,0,0,1,43.05,92a88.22,88.22,0,0,1-13.57,13.44,41.5,41.5,0,0,1-12,6.59,12.7,12.7,0,0,0-1.83-.4,23.35,23.35,0,0,0-3.31-.24,13.31,13.31,0,0,0-7.34,2A10.2,10.2,0,0,0,0,122c0,3.9,2.63,10.49,12.47,10.49h1.47a10.14,10.14,0,0,1,2.44,1.33,17.09,17.09,0,0,1,3.81,3.83,21.29,21.29,0,0,1,2.87,5.56,18.59,18.59,0,0,1,1.05,6.27,51.41,51.41,0,0,1-2.27,13.55c-1.71,6-3.64,12.39-5.72,18.88C14,188.72,12,195.6,10.19,202.37A82.51,82.51,0,0,0,7.32,222.9,43.22,43.22,0,0,0,12,243.27,41.63,41.63,0,0,0,24.5,257.72a54,54,0,0,0,17.28,8.17,73.72,73.72,0,0,0,19.67,2.59,63.42,63.42,0,0,0,27.38-5.7,74.21,74.21,0,0,0,22.09-16.59A165.61,165.61,0,0,0,130.42,220c4.13-6.69,8.63-14.23,13.45-22.53a2.13,2.13,0,0,0,.16-.25l.18-.31.4-.69c.35-.6.74-1.29,1.17-2l.66-1.15c3.4-6,8.7-15.56,14.13-25.64l.07-.15c1.07-2,2.14-4,3.19-6h0v0c.3-.55.59-1.1.88-1.65,3.77-6.66,19.71-30.54,49.89-20.69,3.49,1.34,7.75,3.17,14.42,5.49,4.19,1.45,9.34,3.09,15.84,4.92A89.45,89.45,0,0,0,266.78,152a51.59,51.59,0,0,0,13.13-1.85l.14,0c13-3.74,19.34-12.14,24.69-17.19l.49-.46.58-.53.53-.49C314,124.23,313.32,123,312.48,118.44Z"/></g></g></svg>