<svg xmlns="http://www.w3.org/2000/svg" viewBox="0 0 748.88 268.48"><defs><style>.cls-1{fill:#292f36;}.cls-2{fill:#fdd600;}</style></defs><title>zk_logo_wide_color</title><g id="Layer_2" data-name="Layer 2"><g id="Layer_1-2" data-name="Layer 1"><path class="cls-1" d="M350.17,151.43V113.84h11.05v15.94h.2L373,113.84h11.59l-12.37,16.7,12.95,20.89H372.36l-8.2-13.81-2.94,4v9.85Z"/><path class="cls-1" d="M398.85,151.43H387.8V113.84h16.7c10,0,15.19,4.71,15.19,12.76,0,4.43-2.14,8.7-6.07,10.58l7.13,14.25H408.41l-5.94-12.61h-3.62Zm0-19.9h4.56c3.1,0,5-1.9,5-4.74a4.68,4.68,0,0,0-5-4.8h-4.58Z"/><path class="cls-1" d="M447,144H435.52l-2,7.48H422.31l12.27-37.59h13.86l12.26,37.59H448.93Zm-9.46-7.79H445l-3.62-13.65h-.21Z"/><path class="cls-1" d="M471.92,140.36c.32,2.13,2.92,3.54,5.89,3.54,3.31,0,5.34-1.33,5.34-3.15s-1.38-2.5-5.42-3.23l-5-.89c-6.9-1.2-10.65-5.16-10.65-11,0-7.61,6.51-12.4,15.47-12.4,10,0,15.6,4.58,15.65,11.88H483.15c-.08-2.35-2.4-3.73-5.36-3.73s-4.72,1.2-4.72,3.08,1.54,2.73,5.11,3.36l5.15.88c7.3,1.28,10.71,4.74,10.71,10.84,0,7.68-6.44,12.58-16.44,12.58s-16.09-4.22-16.12-11.72ZM467,102.67h7.19l3.43,5h.21l3.44-5h7.19l-6.64,8.75h-8.18Z"/><path class="cls-1" d="M535.16,132.65c0,12-7.32,19.43-18.94,19.43s-18.93-7.43-18.93-19.43,7.32-19.46,18.93-19.46S535.16,120.64,535.16,132.65Zm-26.62,0c0,6.48,3,10.62,7.68,10.62s7.69-4.14,7.69-10.62S520.83,122,516.22,122,508.54,126.13,508.54,132.65Z"/><path class="cls-1" d="M547.74,151.43l-11.41-37.59H549l6,27.12h.21l6-27.12h12.19l-11.41,37.59Z"/><path class="cls-1" d="M603.37,151.43H576.85V113.84h26.52v8.78H587.89v6.07H602.4v7.92H587.89v6h15.48Z"/><path class="cls-1" d="M607.61,132.62c0-12.4,7.16-19.43,18.65-19.43,9.92,0,17.42,6.46,17.45,15.78H633.13c-.26-4.27-3-7.11-6.87-7.11-4.54,0-7.4,4-7.4,10.74s2.84,10.8,7.42,10.8c3.8,0,6.57-2.78,6.91-7.13h10.57c0,9.37-7.37,15.81-17.5,15.81C614.74,152.08,607.61,145,607.61,132.62Z"/><path class="cls-1" d="M646,152.42V150l24-34H646.75v-3.21h27.74v2.43l-24,33.93h24v3.21Zm13.25-40.48-8.77-9.46h4.22l5.55,6,5.56-6H670l-8.77,9.46Z"/><path class="cls-1" d="M647,150.33l24.85-35.16v-.1H647.74v-1.23H673.5V115L648.68,150.1v.1h24.84v1.23H647Zm5.76-46.86h1.51l6,6.49h.06l6-6.49h1.51L660.81,111h-1.14Z"/><rect class="cls-1" x="677.43" y="112.85" width="3.29" height="39.57"/><path class="cls-1" d="M678.42,151.43V113.84h1.3v37.59Z"/><path class="cls-1" d="M700.79,152.94c-10.12,0-17.19-8.45-17.19-20.55s6.91-20.06,17.19-20.06c7.89,0,14.18,4.79,15.66,11.91l.25,1.19h-3.27l-.19-.75c-1.36-5.56-6.24-9.14-12.45-9.14-8.45,0-13.9,6.61-13.9,16.85s5.58,17.34,13.9,17.34c7.94,0,12.68-4.84,12.68-12.94v-1.62H699.64V132h17.09v4.75C716.73,146.73,710.63,152.94,700.79,152.94Z"/><path class="cls-1" d="M700.79,152c-9.58,0-16.2-8-16.2-19.56,0-11.44,6.49-19.07,16.2-19.07,7.4,0,13.31,4.48,14.69,11.12h-1.27c-1.46-6-6.78-9.9-13.42-9.9-9,0-14.9,7.12-14.9,17.85,0,10.88,6.07,18.33,14.9,18.33,8.49,0,13.68-5.28,13.68-13.93v-2.61H700.64V133h15.1v3.75C715.74,146.16,710.06,152,700.79,152Z"/><path class="cls-1" d="M745.29,152.42l-4.92-13H724.26l-5,13h-3.56L731,112.85h2.69l15.22,39.57Zm-6.15-16.23-6.82-17.94-6.83,17.94Z"/><path class="cls-1" d="M741.05,138.38H723.58l-5,13.05H717.2l14.45-37.59H733l14.46,37.59H746Zm-17-1.2h16.53l-8.2-21.54h-.13Z"/><path class="cls-2" d="M312.48,118.44c-.88-4.77-6.6-14-13.25-6.28-5.23,6.09-7.92,9.47-11.34,11.32s-7.27,2.16-14.85,2.17h0c-8.43,0-15.16-3.59-24-7.08l-.07,0a87.15,87.15,0,0,0-18.87-5.36c-27.25-3.25-44.59,1.06-56.17,7.66-13.11,7.47-18.84,17.89-23.2,23.6l-.06.08q-.51.66-1,1.23a90.17,90.17,0,0,0-6.78,9.39l-.24.36c-1.19,1.85-2.37,3.77-3.5,5.65l0,0c-.48.81-1,1.61-1.42,2.4a28,28,0,0,0-1.57,3.09,29.13,29.13,0,0,0,2.29,27.83c2.09,3.13,4.11,4.89,5.44,3a2.13,2.13,0,0,0,.16-.25l.18-.31.4-.69c.35-.6.74-1.29,1.17-2l.66-1.15c3.4-6,8.7-15.56,14.13-25.64,0,0,8.69-16.79,17.26-23.89a38.39,38.39,0,0,1,4.36-2.67,6.4,6.4,0,0,0,1.91-1c7.6-3.48,17.29-4.85,29.2-1,2.07.68,3.85,1.2,5.37,1.6,2.74,1.09,6,2.39,10.36,3.89s9.34,3.09,15.84,4.92A89.45,89.45,0,0,0,266.78,152a51.59,51.59,0,0,0,13.13-1.85l.14,0c13-3.74,19.34-12.14,24.69-17.19l.49-.46.58-.53.53-.49C314,124.23,313.32,123,312.48,118.44Z"/><path class="cls-1" d="M138.43,194.5a29.13,29.13,0,0,1-2.29-27.83v0l-3.8,6.71q-2.51,4.41-4.94,8.62l-2.91,4.87a6.27,6.27,0,0,0-.41.82c-3.36,5.72-6.62,11.13-9.73,16.16a180.13,180.13,0,0,1-16.23,22.58,62.42,62.42,0,0,1-15.47,13.39A30.08,30.08,0,0,1,67.1,244a24,24,0,0,1-7.65-1.15,12.84,12.84,0,0,1-5-3.07A15,15,0,0,1,51,234.17a27.44,27.44,0,0,1-1.44-9.59,60.45,60.45,0,0,1,2-15.11c1.48-5.74,3.15-11.48,5-17.06,1.92-5.94,3.69-11.88,5.23-17.67a72,72,0,0,0,2.58-18.68,39.76,39.76,0,0,0-3.7-17.72,35.06,35.06,0,0,0-10.35-12.56l-.94-.69A80.58,80.58,0,0,0,70,111.84a107.55,107.55,0,0,0,16.9-19C91.56,86.1,96,79.15,100.21,72.12Q106.32,61.82,112.12,52a108.52,108.52,0,0,1,11.6-16.28A52,52,0,0,1,136.35,25a27.22,27.22,0,0,1,14.22-3.55,40.25,40.25,0,0,1,11.09,1.51,8.54,8.54,0,0,0,9.66-3.86l2-3.35a8.51,8.51,0,0,0-4.82-12.46A84.67,84.67,0,0,0,158.87,1,72.66,72.66,0,0,0,146.3,0a68.9,68.9,0,0,0-26.53,4.92,82.09,82.09,0,0,0-20.94,12.6A107,107,0,0,0,82,35.17c-4.78,6.29-9.42,12.88-13.79,19.58S59.67,68,55.55,74.56A171.23,171.23,0,0,1,43.05,92a88.22,88.22,0,0,1-13.57,13.44,41.5,41.5,0,0,1-12,6.59,12.7,12.7,0,0,0-1.83-.4,23.35,23.35,0,0,0-3.31-.24,13.31,13.31,0,0,0-7.34,2A10.2,10.2,0,0,0,0,122c0,3.9,2.63,10.49,12.47,10.49h1.47a10.14,10.14,0,0,1,2.44,1.33,17.09,17.09,0,0,1,3.81,3.83,21.29,21.29,0,0,1,2.87,5.56,18.59,18.59,0,0,1,1.05,6.27,51.41,51.41,0,0,1-2.27,13.55c-1.71,6-3.64,12.39-5.72,18.88C14,188.72,12,195.6,10.19,202.37A82.51,82.51,0,0,0,7.32,222.9,43.22,43.22,0,0,0,12,243.27,41.63,41.63,0,0,0,24.5,257.72a54,54,0,0,0,17.28,8.17,73.72,73.72,0,0,0,19.67,2.59,63.42,63.42,0,0,0,27.38-5.7,74.21,74.21,0,0,0,22.09-16.59A165.61,165.61,0,0,0,130.42,220c4.13-6.69,8.63-14.23,13.45-22.52C142.54,199.38,140.52,197.62,138.43,194.5Z"/></g></g></svg>